<svg xmlns="http://www.w3.org/2000/svg" viewBox="0 0 1600 1066" preserveAspectRatio="xMidYMid slice"><defs><linearGradient id="w" x1="0" y1="0" x2="0" y2="1"><stop offset="0" stop-color="#e6d3b6"/><stop offset="1" stop-color="#d8c4a3"/></linearGradient></defs><rect width="1600" height="1066" fill="url(#w)"/><line x1="0" y1="0" x2="1600" y2="0" stroke="#c0664a" stroke-opacity=".08" stroke-width="3"/><line x1="0" y1="90" x2="1600" y2="90" stroke="#c0664a" stroke-opacity=".08" stroke-width="3"/><line x1="0" y1="180" x2="1600" y2="180" stroke="#c0664a" stroke-opacity=".08" stroke-width="3"/><line x1="0" y1="270" x2="1600" y2="270" stroke="#c0664a" stroke-opacity=".08" stroke-width="3"/><line x1="0" y1="360" x2="1600" y2="360" stroke="#c0664a" stroke-opacity=".08" stroke-width="3"/><line x1="0" y1="450" x2="1600" y2="450" stroke="#c0664a" stroke-opacity=".08" stroke-width="3"/><line x1="0" y1="540" x2="1600" y2="540" stroke="#c0664a" stroke-opacity=".08" stroke-width="3"/><line x1="0" y1="630" x2="1600" y2="630" stroke="#c0664a" stroke-opacity=".08" stroke-width="3"/><line x1="0" y1="720" x2="1600" y2="720" stroke="#c0664a" stroke-opacity=".08" stroke-width="3"/><line x1="0" y1="810" x2="1600" y2="810" stroke="#c0664a" stroke-opacity=".08" stroke-width="3"/><line x1="0" y1="900" x2="1600" y2="900" stroke="#c0664a" stroke-opacity=".08" stroke-width="3"/><line x1="0" y1="990" x2="1600" y2="990" stroke="#c0664a" stroke-opacity=".08" stroke-width="3"/><path d="M0 820 H1600 V1066 H0z" fill="#c0664a" opacity=".35"/><rect x="380" y="560" width="840" height="230" rx="30" fill="#374130"/><rect x="420" y="480" width="760" height="120" rx="40" fill="#e6d3b6" stroke="#374130" stroke-width="10"/><rect x="460" y="500" width="300" height="80" rx="30" fill="#fff" opacity=".85"/><rect x="840" y="500" width="300" height="80" rx="30" fill="#fff" opacity=".85"/><path d="M680 120 V380 a120 120 0 0 1 240 0 V120z" fill="#f9e3bb" transform="rotate(180 800 250)"/><rect x="200" y="300" width="70" height="500" fill="#c0664a"/><circle cx="235" cy="270" r="55" fill="#f9e3bb"/><rect x="1330" y="430" width="80" height="360" fill="#c0664a"/><circle cx="1370" cy="400" r="50" fill="#f9e3bb"/><rect y="900" width="1600" height="166" fill="#374130" opacity=".18"/></svg>